<svg xmlns="http://www.w3.org/2000/svg" xmlns:xlink="http://www.w3.org/1999/xlink" width="149" height="55.5" viewBox="0 0 1341.74 500"><defs><style>.c6f3i9{fill:#00BE5C;}</style></defs><title>LYNX broker logo - (universal)</title><path class="c6f3i9" d="M0,0V500H279.49V417.33H100.85V0H0ZM470.68,0l-70,193.25h-1.42L333.24,0H220L349.56,303.19V500H450.5V303.19L579.94,0H470.68ZM849.51,0V342.42h-1.42L726.28,0H610V500h92.45V149.86h1.42L827.13,500H942V0H849.51Zm373.89,0-63.52,161.73L1095.48,0H983.92l114.82,247.19L974.1,500h110.62l71.44-169.45L1228.28,500h113.46L1217.09,247.19,1333.33,0H1223.39Z"/></svg>
